#!OML:ASF F:\twosubjects\two\Thursday\Session 1\justin.ASF
:FULLY-SPECIFIED
:DEGREES
365
root 8.79659 14.3287 -12.4697 23.3538 17.7164 14.9985
lowerback 33.0211 3.67103 10.6415
upperback -0.20009 10.6918 9.40554
thorax -17.4906 4.08269 0.0810278
lowerneck -21.0293 -9.99305 -13.7375
upperneck 16.1583 -8.9799 -2.2433
head 9.07723 -5.31576 0.0861036
rclavicle 1.11319e-013 7.95139e-014
rhumerus 53.7441 -25.1406 -100.516
rradius 86.042
rwrist -73.093
rhand -28.9224 6.1057
rfingers 7.12502
rthumb -2.27673 -23.8619
lclavicle 1.11319e-013 7.95139e-014
lhumerus 17.5114 -57.4565 89.1086
lradius 69.9051
lwrist -5.14224
lhand -16.0785 63.8402
lfingers 7.12502
lthumb 10.1244 -93.5767
rfemur -61.3879 -30.7115 -14.1925
rtibia 65.2527
rfoot -11.6816 0.369002
rtoes -34.4596
lfemur -40.3031 19.397 -10.4829
ltibia 61.5063
lfoot -22.3772 -0.556842
ltoes -33.1567
366
root 8.80163 14.3393 -12.4617 23.2779 17.6027 15.1192
lowerback 33.1826 3.72241 10.4244
upperback -0.186751 10.714 9.46372
thorax -17.6061 4.10456 0.230926
lowerneck -20.9841 -10.0319 -13.9723
upperneck 16.1949 -8.98671 -2.14633
head 9.10028 -5.3237 0.151697
rclavicle -4.77083e-014 -1.17681e-013
rhumerus 53.7346 -25.0583 -100.352
rradius 85.8564
rwrist -73.2841
rhand -28.6956 6.00248
rfingers 7.12502
rthumb -2.05777 -23.9673
lclavicle -4.77083e-014 -1.17681e-013
lhumerus 17.184 -57.4321 89.4077
lradius 69.9643
lwrist -5.18102
lhand -17.8025 63.7042
lfingers 7.12502
lthumb 8.4609 -93.5147
rfemur -61.1905 -30.6219 -14.4487
rtibia 65.1885
rfoot -11.634 0.471157
rtoes -34.1749
lfemur -40.083 19.3968 -10.6067
ltibia 61.4737
lfoot -22.2644 -0.344354
ltoes -33.5908
367
root 8.80639 14.3454 -12.4551 23.1745 17.5643 15.1124
lowerback 33.2481 3.72176 10.3625
upperback -0.097846 10.6965 9.52731
thorax -17.5545 4.11048 0.337415
lowerneck -21.2788 -10.0253 -13.7963
upperneck 16.3397 -8.91569 -2.42748
head 9.17603 -5.31609 0.0241427
rclavicle -1.52667e-013 -4.45278e-014
rhumerus 53.8163 -24.9639 -100.269
rradius 85.7241
rwrist -73.4591
rhand -28.4764 6.04715
rfingers 7.12502
rthumb -1.84598 -23.9246
lclavicle -1.52667e-013 -4.45278e-014
lhumerus 17.201 -57.406 89.3891
lradius 70.0374
lwrist -5.23346
lhand -16.0145 63.9397
lfingers 7.12502
lthumb 10.1862 -93.6731
rfemur -61.0549 -30.5988 -14.4934
rtibia 65.1324
rfoot -11.6641 0.543981
rtoes -33.4926
lfemur -39.9433 19.4675 -10.5966
ltibia 61.4482
lfoot -22.2046 -0.166861
ltoes -34.1641
368
root 8.80899 14.353 -12.4492 23.031 17.613 15.0267
lowerback 33.3241 3.66048 10.4113
upperback -0.00972663 10.643 9.58297
thorax -17.4849 4.0921 0.395844
lowerneck -21.4015 -9.94927 -13.5272
upperneck 16.2737 -8.83752 -2.61856
head 9.14644 -5.28258 -0.0700616
rclavicle -3.18055e-015 1.90833e-014
rhumerus 53.903 -24.8124 -100.309
rradius 85.5873
rwrist -73.5241
rhand -28.1807 6.20767
rfingers 7.12502
rthumb -1.56047 -23.7664
lclavicle -3.18055e-015 1.90833e-014
lhumerus 17.223 -57.2802 89.322
lradius 70.089
lwrist -5.40879
lhand -17.8998 63.9747
lfingers 7.12502
lthumb 8.36705 -93.789
rfemur -60.8634 -30.5583 -14.4326
rtibia 65.0923
rfoot -11.6761 0.534327
rtoes -33.1126
lfemur -39.8206 19.5236 -10.4673
ltibia 61.4253
lfoot -22.1852 -0.4891
ltoes -33.5372
369
root 8.81192 14.3611 -12.4424 23.0311 17.5555 15.2339
lowerback 33.3814 3.67436 10.1757
upperback 0.0318838 10.5768 9.59667
thorax -17.5111 4.08442 0.553048
lowerneck -21.0698 -9.97223 -13.736
upperneck 15.9915 -8.94271 -2.28716
head 9.02104 -5.29797 0.0795474
rclavicle 7.95139e-014 6.67916e-014
rhumerus 53.8569 -24.7146 -100.191
rradius 85.4841
rwrist -73.5885
rhand -27.8857 6.38813
rfingers 7.12502
rthumb -1.27552 -23.5878
lclavicle 7.95139e-014 6.67916e-014
lhumerus 17.214 -57.1593 89.3936
lradius 70.0751
lwrist -5.53334
lhand -18.9049 64.2021
lfingers 7.12502
lthumb 7.39696 -94.0528
rfemur -60.739 -30.6087 -14.658
rtibia 65.0651
rfoot -11.5752 0.529804
rtoes -33.3788
lfemur -39.7177 19.4875 -10.6972
ltibia 61.4005
lfoot -22.1919 -0.667827
ltoes -32.9522
370
root 8.81511 14.3667 -12.4358 23.0931 17.4798 15.4251
lowerback 33.3872 3.69945 9.94542
upperback 0.0377999 10.5221 9.59431
thorax -17.5527 4.07945 0.68748
lowerneck -20.797 -10.0359 -14.0077
upperneck 15.834 -9.05315 -2.03102
head 8.95134 -5.33235 0.204349
rclavicle 7.31528e-014 -1.27222e-014
rhumerus 53.7196 -24.6955 -100.02
rradius 85.454
rwrist -73.7817
rhand -27.8602 6.62243
rfingers 7.12502
rthumb -1.25088 -23.3536
lclavicle 7.31528e-014 -1.27222e-014
lhumerus 17.161 -57.1479 89.5095
lradius 69.9916
lwrist -5.4467
lhand -18.059 64.138
lfingers 7.12502
lthumb 8.21335 -93.9583
rfemur -60.7192 -30.6392 -14.8491
rtibia 65.0545
rfoot -11.4981 0.456219
rtoes -33.7341
lfemur -39.7097 19.4545 -10.927
ltibia 61.4069
lfoot -22.1872 -0.734857
ltoes -32.7995
371
root 8.81645 14.3696 -12.4304 23.0552 17.6323 15.2293
lowerback 33.3335 3.60973 10.1268
upperback 0.0649598 10.4725 9.64522
thorax -17.4727 4.05253 0.679452
lowerneck -20.8754 -9.97809 -13.8944
upperneck 15.8611 -8.96982 -2.14609
head 8.95851 -5.30011 0.158073
rclavicle -6.36111e-015 2.54444e-014
rhumerus 53.6982 -24.6529 -100.033
rradius 85.3956
rwrist -73.9556
rhand -27.5238 6.724
rfingers 7.12502
rthumb -0.926001 -23.2537
lclavicle -6.36111e-015 2.54444e-014
lhumerus 17.2237 -57.1581 89.3983
lradius 69.9246
lwrist -5.39318
lhand -16.181 63.9935
lfingers 7.12502
lthumb 10.0255 -93.7347
rfemur -60.6714 -30.629 -14.6092
rtibia 65.0639
rfoot -11.5588 0.351583
rtoes -33.8413
lfemur -39.7864 19.4246 -10.652
ltibia 61.4402
lfoot -22.1176 -1.1704
ltoes -31.9651
372
root 8.8186 14.3684 -12.4247 23.0423 17.743 15.0161
lowerback 33.281 3.59828 10.2585
upperback 0.0843764 10.5143 9.73167
thorax -17.4207 4.06819 0.694677
lowerneck -21.0481 -9.94612 -13.7275
upperneck 15.939 -8.90776 -2.32258
head 8.99518 -5.28322 0.0741892
rclavicle -6.04305e-014 -6.04305e-014
rhumerus 53.5913 -24.7177 -99.8445
rradius 85.3344
rwrist -74.2363
rhand -27.2166 7.08674
rfingers 7.12502
rthumb -0.629269 -22.8921
lclavicle -6.04305e-014 -6.04305e-014
lhumerus 17.2897 -57.1724 89.419
lradius 69.8715
lwrist -5.41875
lhand -18.0723 63.8866
lfingers 7.12502
lthumb 8.20052 -93.7075
rfemur -60.7115 -30.6404 -14.3041
rtibia 65.0793
rfoot -11.6172 0.254249
rtoes -34.0374
lfemur -39.8853 19.518 -10.4103
ltibia 61.4901
lfoot -22.2307 -1.12675
ltoes -32.4446
373
root 8.82398 14.3686 -12.417 23.0051 17.6645 14.9924
lowerback 33.3516 3.59949 10.0559
upperback 0.0475017 10.4909 9.8706
thorax -17.5763 4.07384 0.950475
lowerneck -20.7637 -9.84884 -13.8816
upperneck 15.8709 -8.77103 -2.36213
head 8.92397 -5.23021 0.118081
rclavicle -3.18055e-014 -1.145e-013
rhumerus 53.1614 -24.5667 -99.5114
rradius 85.2725
rwrist -74.6273
rhand -27.0619 7.33215
rfingers 7.12502
rthumb -0.479911 -22.6471
lclavicle -3.18055e-014 -1.145e-013
lhumerus 16.661 -56.8687 90.1151
lradius 69.804
lwrist -5.47462
lhand -15.2674 64.1188
lfingers 7.12502
lthumb 10.9068 -93.8156
rfemur -60.7129 -30.5716 -14.2795
rtibia 65.0844
rfoot -11.6014 0.19937
rtoes -34.3827
lfemur -39.8239 19.6857 -10.4294
ltibia 61.5291
lfoot -22.3454 -0.589077
ltoes -33.8143
374
root 8.8291 14.3724 -12.4096 22.8926 17.64 15.001
lowerback 33.4805 3.57018 10.0577
upperback 0.0755787 10.466 9.85777
thorax -17.5959 4.05942 0.939597
lowerneck -20.7477 -9.86891 -13.9623
upperneck 15.854 -8.80351 -2.23469
head 8.92649 -5.2358 0.169036
rclavicle 0 -6.36111e-014
rhumerus 53.2377 -24.5234 -99.6128
rradius 85.0471
rwrist -74.9558
rhand -26.9952 7.36272
rfingers 7.12502
rthumb -0.415479 -22.6166
lclavicle 0 -6.36111e-014
lhumerus 16.5014 -56.8326 90.26
lradius 69.7541
lwrist -5.64488
lhand -13.4047 64.2395
lfingers 7.12502
lthumb 12.703 -93.8332
rfemur -60.5274 -30.4679 -14.406
rtibia 65.0651
rfoot -11.5589 0.213
rtoes -34.2609
lfemur -39.6584 19.725 -10.4112
ltibia 61.55
lfoot -22.2095 -0.476739
ltoes -34.1203
375
root 8.83083 14.3821 -12.404 22.7402 17.7441 14.8393
lowerback 33.6458 3.51087 10.2811
upperback 0.0795179 10.5101 9.90055
thorax -17.6315 4.05543 0.847053
lowerneck -20.6741 -9.97939 -14.2573
upperneck 15.8657 -8.93554 -1.95082
head 8.95317 -5.28456 0.289364
rclavicle -3.18055e-014 -4.77083e-014
rhumerus 53.349 -24.5577 -99.61
rradius 84.6802
rwrist -75.2462
rhand -26.9394 7.54306
rfingers 7.12502
rthumb -0.361549 -22.4364
lclavicle -3.18055e-014 -4.77083e-014
lhumerus 16.558 -56.8932 90.2545
lradius 69.7094
lwrist -5.79756
lhand -15.8995 64.0795
lfingers 7.12502
lthumb 10.2971 -93.8074
rfemur -60.3236 -30.3411 -14.3195
rtibia 65.0301
rfoot -11.5614 0.109622
rtoes -33.5471
lfemur -39.5526 19.7354 -10.1961
ltibia 61.556
lfoot -22.166 -0.285141
ltoes -35.2206
